<svg width="37" height="52" viewBox="0 0 37 52" fill="none" xmlns="http://www.w3.org/2000/svg">
<g filter="url(#filter0_i_194_310)">
<rect x="2.42578" y="18.3955" width="30.5613" height="1.9404" rx="0.9702" fill="#202020"/>
<rect x="2.42578" y="18.3955" width="30.5613" height="1.9404" rx="0.9702" fill="#202020"/>
<rect x="2.42578" y="18.3955" width="30.5613" height="1.9404" rx="0.9702" fill="#010101"/>
</g>
<g filter="url(#filter1_i_194_310)">
<rect x="2.42578" y="22.2765" width="30.5613" height="1.9404" rx="0.9702" fill="#202020"/>
<rect x="2.42578" y="22.2765" width="30.5613" height="1.9404" rx="0.9702" fill="#202020"/>
<rect x="2.42578" y="22.2765" width="30.5613" height="1.9404" rx="0.9702" fill="#010101"/>
</g>
<g filter="url(#filter2_i_194_310)">
<rect x="2.42578" y="26.1573" width="30.5613" height="1.9404" rx="0.9702" fill="#202020"/>
<rect x="2.42578" y="26.1573" width="30.5613" height="1.9404" rx="0.9702" fill="#202020"/>
<rect x="2.42578" y="26.1573" width="30.5613" height="1.9404" rx="0.9702" fill="#010101"/>
</g>
<g filter="url(#filter3_i_194_310)">
<rect x="2.42578" y="30.0377" width="30.5613" height="1.9404" rx="0.9702" fill="#202020"/>
<rect x="2.42578" y="30.0377" width="30.5613" height="1.9404" rx="0.9702" fill="#202020"/>
<rect x="2.42578" y="30.0377" width="30.5613" height="1.9404" rx="0.9702" fill="#010101"/>
</g>
<rect y="15" width="36.0432" height="23.7358" rx="1" fill="#A5A5A5" fill-opacity="0.42"/>
<rect x="4.36719" y="18.3961" width="5.8212" height="29.5911" fill="#333333"/>
<rect x="2.6377" y="49.2849" width="8.79103" height="1.75821" fill="#483E18"/>
<path d="M4.36671 46.2888L10.1101 46.208L11.4287 49.2849H2.6377L4.36671 46.2888Z" fill="#D5A602"/>
<rect x="26.3428" y="18.5164" width="5.8212" height="29.5911" fill="#333333"/>
<rect x="24.6143" y="49.4053" width="8.79103" height="1.75821" fill="#483E18"/>
<path d="M26.3433 46.4093L32.0866 46.3285L33.4053 49.4054H24.6143L26.3433 46.4093Z" fill="#D5A602"/>
<path d="M0 6.49517L9.75 -2.47955e-05V12.9904L0 6.49517Z" fill="#18A0FB"/>
<path d="M12.1602 6.49023H33.0002" stroke="#18A0FB" stroke-width="5" stroke-linecap="square" stroke-dasharray="7 5"/>
<defs>
<filter id="filter0_i_194_310" x="2.42578" y="18.3955" width="30.5615" height="3.94043" filterUnits="userSpaceOnUse" color-interpolation-filters="sRGB">
<feFlood flood-opacity="0" result="BackgroundImageFix"/>
<feBlend mode="normal" in="SourceGraphic" in2="BackgroundImageFix" result="shape"/>
<feColorMatrix in="SourceAlpha" type="matrix" values="0 0 0 0 0 0 0 0 0 0 0 0 0 0 0 0 0 0 127 0" result="hardAlpha"/>
<feOffset dy="2"/>
<feGaussianBlur stdDeviation="2.5"/>
<feComposite in2="hardAlpha" operator="arithmetic" k2="-1" k3="1"/>
<feColorMatrix type="matrix" values="0 0 0 0 0 0 0 0 0 0 0 0 0 0 0 0 0 0 0.44 0"/>
<feBlend mode="normal" in2="shape" result="effect1_innerShadow_194_310"/>
</filter>
<filter id="filter1_i_194_310" x="2.42578" y="22.2765" width="30.5615" height="3.94043" filterUnits="userSpaceOnUse" color-interpolation-filters="sRGB">
<feFlood flood-opacity="0" result="BackgroundImageFix"/>
<feBlend mode="normal" in="SourceGraphic" in2="BackgroundImageFix" result="shape"/>
<feColorMatrix in="SourceAlpha" type="matrix" values="0 0 0 0 0 0 0 0 0 0 0 0 0 0 0 0 0 0 127 0" result="hardAlpha"/>
<feOffset dy="2"/>
<feGaussianBlur stdDeviation="2.5"/>
<feComposite in2="hardAlpha" operator="arithmetic" k2="-1" k3="1"/>
<feColorMatrix type="matrix" values="0 0 0 0 0 0 0 0 0 0 0 0 0 0 0 0 0 0 0.44 0"/>
<feBlend mode="normal" in2="shape" result="effect1_innerShadow_194_310"/>
</filter>
<filter id="filter2_i_194_310" x="2.42578" y="26.1573" width="30.5615" height="3.94043" filterUnits="userSpaceOnUse" color-interpolation-filters="sRGB">
<feFlood flood-opacity="0" result="BackgroundImageFix"/>
<feBlend mode="normal" in="SourceGraphic" in2="BackgroundImageFix" result="shape"/>
<feColorMatrix in="SourceAlpha" type="matrix" values="0 0 0 0 0 0 0 0 0 0 0 0 0 0 0 0 0 0 127 0" result="hardAlpha"/>
<feOffset dy="2"/>
<feGaussianBlur stdDeviation="2.5"/>
<feComposite in2="hardAlpha" operator="arithmetic" k2="-1" k3="1"/>
<feColorMatrix type="matrix" values="0 0 0 0 0 0 0 0 0 0 0 0 0 0 0 0 0 0 0.44 0"/>
<feBlend mode="normal" in2="shape" result="effect1_innerShadow_194_310"/>
</filter>
<filter id="filter3_i_194_310" x="2.42578" y="30.0377" width="30.5615" height="3.94043" filterUnits="userSpaceOnUse" color-interpolation-filters="sRGB">
<feFlood flood-opacity="0" result="BackgroundImageFix"/>
<feBlend mode="normal" in="SourceGraphic" in2="BackgroundImageFix" result="shape"/>
<feColorMatrix in="SourceAlpha" type="matrix" values="0 0 0 0 0 0 0 0 0 0 0 0 0 0 0 0 0 0 127 0" result="hardAlpha"/>
<feOffset dy="2"/>
<feGaussianBlur stdDeviation="2.5"/>
<feComposite in2="hardAlpha" operator="arithmetic" k2="-1" k3="1"/>
<feColorMatrix type="matrix" values="0 0 0 0 0 0 0 0 0 0 0 0 0 0 0 0 0 0 0.44 0"/>
<feBlend mode="normal" in2="shape" result="effect1_innerShadow_194_310"/>
</filter>
</defs>
</svg>
