<svg width="72" height="72" viewBox="0 0 72 72" fill="none" xmlns="http://www.w3.org/2000/svg">
<path d="M22.0029 25.3889C22.0089 25.1724 22.1861 25 22.4027 25H25.6246C25.8412 25 26.0185 25.1724 26.0245 25.3889L26.5023 42.5889C26.5085 42.8141 26.3277 43 26.1024 43H21.9249C21.6997 43 21.5188 42.8141 21.5251 42.5889L22.0029 25.3889Z" fill="#D5A602"/>
<rect x="21" y="42.5" width="6" height="2" rx="0.4" fill="#333333"/>
<path d="M40.0029 25.3889C40.0089 25.1724 40.1861 25 40.4027 25H43.6246C43.8412 25 44.0185 25.1724 44.0245 25.3889L44.5023 42.5889C44.5085 42.8141 44.3277 43 44.1024 43H39.9249C39.6997 43 39.5188 42.8141 39.5251 42.5889L40.0029 25.3889Z" fill="#D5A602"/>
<rect x="39" y="42.5" width="6" height="2" rx="0.4" fill="#333333"/>
<rect x="20" y="44" width="26" height="2" rx="0.2" fill="#5A5A5A"/>
<rect x="23" y="46" width="21" height="12" rx="2" fill="#F9C200"/>
<rect x="24" y="48" width="19" height="10" rx="2" fill="#6C6C6C"/>
<path d="M12.5683 12.5681C11.3858 11.3856 11.3782 9.45703 12.6569 8.37922C18.2829 3.63691 25.2441 0.753506 32.5756 0.128627C34.2418 -0.0133913 35.6002 1.35567 35.6002 3.02798V3.02798C35.6002 4.70028 34.2409 6.03986 32.5774 6.21091C26.8523 6.79959 21.421 9.04931 16.9565 12.6813C15.6592 13.7366 13.7508 13.7506 12.5683 12.5681V12.5681Z" fill="#18A0FB"/>
<path d="M8 17.5L19.9992 13.5001L11.4993 6L8 17.5Z" fill="#18A0FB"/>
</svg>
