<svg width="44" height="45" viewBox="0 0 44 45" fill="none" xmlns="http://www.w3.org/2000/svg">
<g filter="url(#filter0_i_194_275)">
<rect x="2.4707" y="3.84375" width="31.1242" height="1.97614" rx="0.98807" fill="#202020"/>
<rect x="2.4707" y="3.84375" width="31.1242" height="1.97614" rx="0.98807" fill="#202020"/>
<rect x="2.4707" y="3.84375" width="31.1242" height="1.97614" rx="0.98807" fill="#010101"/>
</g>
<g filter="url(#filter1_i_194_275)">
<rect x="2.4707" y="7.79614" width="31.1242" height="1.97614" rx="0.98807" fill="#202020"/>
<rect x="2.4707" y="7.79614" width="31.1242" height="1.97614" rx="0.98807" fill="#202020"/>
<rect x="2.4707" y="7.79614" width="31.1242" height="1.97614" rx="0.98807" fill="#010101"/>
</g>
<g filter="url(#filter2_i_194_275)">
<rect x="2.4707" y="11.7487" width="31.1242" height="1.97614" rx="0.98807" fill="#202020"/>
<rect x="2.4707" y="11.7487" width="31.1242" height="1.97614" rx="0.98807" fill="#202020"/>
<rect x="2.4707" y="11.7487" width="31.1242" height="1.97614" rx="0.98807" fill="#010101"/>
</g>
<g filter="url(#filter3_i_194_275)">
<rect x="2.4707" y="15.7004" width="31.1242" height="1.97614" rx="0.98807" fill="#202020"/>
<rect x="2.4707" y="15.7004" width="31.1242" height="1.97614" rx="0.98807" fill="#202020"/>
<rect x="2.4707" y="15.7004" width="31.1242" height="1.97614" rx="0.98807" fill="#010101"/>
</g>
<rect y="0.385742" width="36.5586" height="25.1958" rx="1" fill="#A5A5A5" fill-opacity="0.42"/>
<rect x="4.44727" y="3.84448" width="5.92842" height="30.1361" fill="#333333"/>
<path d="M3.70605 3.34998L4.44711 3.84406V33.9802L3.70605 33.2391V3.34998Z" fill="#868686"/>
<path d="M3.70605 3.34998H9.63448L10.3755 3.84401H4.44711L3.70605 3.34998Z" fill="#616161"/>
<rect x="15.3164" y="42.8726" width="5.43439" height="1.48211" fill="#483E18"/>
<path d="M4.44727 32.251H10.1287L20.7504 42.8727H18.0332H15.316L4.44727 32.251Z" fill="#D5A602"/>
<path d="M4.44727 32.251L15.316 42.8727V44.3548L4.44727 34.2271V32.251Z" fill="#DBBC4E"/>
<rect x="27.4189" y="3.84436" width="5.92842" height="30.1361" fill="#333333"/>
<path d="M26.6777 3.34998L27.4188 3.84406V33.9802L26.6777 33.2391V3.34998Z" fill="#868686"/>
<path d="M26.6777 3.34998H32.6062L33.3472 3.84401H27.4188L26.6777 3.34998Z" fill="#616161"/>
<rect x="38.2861" y="42.8727" width="5.43439" height="1.48211" fill="#483E18"/>
<path d="M27.417 32.2512H33.0984L43.7202 42.873H41.003H38.2858L27.417 32.2512Z" fill="#D5A602"/>
<path d="M27.417 32.2512L38.2858 42.873V44.3551L27.417 34.2274V32.2512Z" fill="#DBBC4E"/>
<path d="M40.5474 6.7323L43.2955 10.9634H37.7992L40.5474 6.7323Z" fill="#18A0FB"/>
<path d="M40.5469 11.3159L40.8995 43.4019" stroke="#18A0FB" stroke-width="3" stroke-linecap="square" stroke-dasharray="7 5"/>
<path d="M17.2778 6.7323L20.026 10.9634H14.5296L17.2778 6.7323Z" fill="#18A0FB"/>
<path d="M17.2773 11.3159L17.6299 43.4019" stroke="#18A0FB" stroke-width="3" stroke-linecap="square" stroke-dasharray="7 5"/>
<defs>
<filter id="filter0_i_194_275" x="2.4707" y="3.84375" width="31.124" height="3.9762" filterUnits="userSpaceOnUse" color-interpolation-filters="sRGB">
<feFlood flood-opacity="0" result="BackgroundImageFix"/>
<feBlend mode="normal" in="SourceGraphic" in2="BackgroundImageFix" result="shape"/>
<feColorMatrix in="SourceAlpha" type="matrix" values="0 0 0 0 0 0 0 0 0 0 0 0 0 0 0 0 0 0 127 0" result="hardAlpha"/>
<feOffset dy="2"/>
<feGaussianBlur stdDeviation="2.5"/>
<feComposite in2="hardAlpha" operator="arithmetic" k2="-1" k3="1"/>
<feColorMatrix type="matrix" values="0 0 0 0 0 0 0 0 0 0 0 0 0 0 0 0 0 0 0.44 0"/>
<feBlend mode="normal" in2="shape" result="effect1_innerShadow_194_275"/>
</filter>
<filter id="filter1_i_194_275" x="2.4707" y="7.79614" width="31.124" height="3.9762" filterUnits="userSpaceOnUse" color-interpolation-filters="sRGB">
<feFlood flood-opacity="0" result="BackgroundImageFix"/>
<feBlend mode="normal" in="SourceGraphic" in2="BackgroundImageFix" result="shape"/>
<feColorMatrix in="SourceAlpha" type="matrix" values="0 0 0 0 0 0 0 0 0 0 0 0 0 0 0 0 0 0 127 0" result="hardAlpha"/>
<feOffset dy="2"/>
<feGaussianBlur stdDeviation="2.5"/>
<feComposite in2="hardAlpha" operator="arithmetic" k2="-1" k3="1"/>
<feColorMatrix type="matrix" values="0 0 0 0 0 0 0 0 0 0 0 0 0 0 0 0 0 0 0.44 0"/>
<feBlend mode="normal" in2="shape" result="effect1_innerShadow_194_275"/>
</filter>
<filter id="filter2_i_194_275" x="2.4707" y="11.7487" width="31.124" height="3.9762" filterUnits="userSpaceOnUse" color-interpolation-filters="sRGB">
<feFlood flood-opacity="0" result="BackgroundImageFix"/>
<feBlend mode="normal" in="SourceGraphic" in2="BackgroundImageFix" result="shape"/>
<feColorMatrix in="SourceAlpha" type="matrix" values="0 0 0 0 0 0 0 0 0 0 0 0 0 0 0 0 0 0 127 0" result="hardAlpha"/>
<feOffset dy="2"/>
<feGaussianBlur stdDeviation="2.5"/>
<feComposite in2="hardAlpha" operator="arithmetic" k2="-1" k3="1"/>
<feColorMatrix type="matrix" values="0 0 0 0 0 0 0 0 0 0 0 0 0 0 0 0 0 0 0.44 0"/>
<feBlend mode="normal" in2="shape" result="effect1_innerShadow_194_275"/>
</filter>
<filter id="filter3_i_194_275" x="2.4707" y="15.7004" width="31.124" height="3.9762" filterUnits="userSpaceOnUse" color-interpolation-filters="sRGB">
<feFlood flood-opacity="0" result="BackgroundImageFix"/>
<feBlend mode="normal" in="SourceGraphic" in2="BackgroundImageFix" result="shape"/>
<feColorMatrix in="SourceAlpha" type="matrix" values="0 0 0 0 0 0 0 0 0 0 0 0 0 0 0 0 0 0 127 0" result="hardAlpha"/>
<feOffset dy="2"/>
<feGaussianBlur stdDeviation="2.5"/>
<feComposite in2="hardAlpha" operator="arithmetic" k2="-1" k3="1"/>
<feColorMatrix type="matrix" values="0 0 0 0 0 0 0 0 0 0 0 0 0 0 0 0 0 0 0.44 0"/>
<feBlend mode="normal" in2="shape" result="effect1_innerShadow_194_275"/>
</filter>
</defs>
</svg>
